<svg id="Layer_1" data-name="Layer 1" xmlns="http://www.w3.org/2000/svg" viewBox="0 0 356.67 172.21"><defs><style>.cls-1{fill:#171445;}.cls-2{fill:none;stroke:#414042;stroke-linecap:round;stroke-linejoin:bevel;stroke-width:10px;}</style></defs><title>qplug</title><path class="cls-1" d="M508.34,424.89c-42.09,0-76.34-35-76.34-78s34.25-78,76.34-78,76.34,35,76.34,78S550.44,424.89,508.34,424.89Zm0-136.1c-31.07,0-56.34,26-56.34,58s25.27,58,56.34,58,56.34-26,56.34-58S539.41,288.79,508.34,288.79Z" transform="translate(-432 -268.79)"/><path class="cls-2" d="M592.36,361.74" transform="translate(-432 -268.79)"/><path class="cls-2" d="M588.63,392.22" transform="translate(-432 -268.79)"/><path class="cls-1" d="M762.38,346.81l-46.39,0v-1.92a8.29,8.29,0,0,0-8.28-8.29l-54.1-.05h0a19,19,0,0,0-13.36,5.43,18.67,18.67,0,0,0-3.88,5.51c-10.39,4.16-19.91,11.9-26.14,26-1.65,3.72-3.17,8.33-4.93,13.68-7.4,22.45-13.55,35.89-21.34,33.55-9.77-2.93-13.23-14.2-17.76-32.41-3.91-15.69-8.33-33.48-22.41-43-9.7-6.53-18-5.57-23.21-3.61-11.74,4.39-20.82,18.26-27,41.22a10,10,0,0,0,19.32,5.19c4.58-17,10.67-26.18,14.68-27.67,0.5-.19,1.83-0.69,5,1.47,7.7,5.19,10.85,17.83,14.18,31.21,4.7,18.9,10,40.31,31.42,46.73A27.2,27.2,0,0,0,586,441c12.53,0,20.81-9.65,25-16.14,6-9.37,10-21.64,13.28-31.5,1.53-4.64,3-9,4.22-11.84,2.82-6.37,6.47-10.72,11.24-13.59a19,19,0,0,0,13.84,6l54.1,0.05h0a8.28,8.28,0,0,0,8.28-8.28v-0.78l46.39,0h0a3.34,3.34,0,0,0,3.33-3.33V350.15A3.34,3.34,0,0,0,762.38,346.81Z" transform="translate(-432 -268.79)"/><path class="cls-1" d="M768.69,349.06v13.55a1.69,1.69,0,0,0,2.19,1.71l4-1.42a5.74,5.74,0,0,1,4.69.36l0.38,0.21a6.43,6.43,0,0,0,6.12,0h0a5.25,5.25,0,0,0,2.65-4.64v-6a5.25,5.25,0,0,0-2.64-4.64h0a6.43,6.43,0,0,0-6.12,0l-0.38.21a5.74,5.74,0,0,1-4.69.35l-3.95-1.43A1.69,1.69,0,0,0,768.69,349.06Z" transform="translate(-432 -268.79)"/></svg>